<?xml version="1.0" encoding="utf-8"?>
<!-- Generator: Adobe Illustrator 16.0.0, SVG Export Plug-In . SVG Version: 6.00 Build 0)  -->
<!DOCTYPE svg PUBLIC "-//W3C//DTD SVG 1.1//EN" "http://www.w3.org/Graphics/SVG/1.1/DTD/svg11.dtd">
<svg version="1.1" id="图形" xmlns="http://www.w3.org/2000/svg" xmlns:xlink="http://www.w3.org/1999/xlink" x="0px" y="0px"
	 width="1000.6px" height="1000.7px" viewBox="0 0 1000.6 1000.7" enable-background="new 0 0 1000.6 1000.7" xml:space="preserve">
<g>
	<g>
		<path fill="#CCCCCC" d="M1000.6,162.9c0-14.5-9.9-26.2-22.2-26.2H313c-12.2,0-22.2,11.7-22.2,26.2c0,14.4,9.9,26.2,22.2,26.2
			h635.2l-99.9,392.7H338.2L203.4,32l-1.3,0.4c0-0.1,0-0.3,0-0.4c0-14.5-9.9-26.2-22.2-26.2H24.7C12.5,5.8,2.5,17.5,2.5,32
			c0,14.4,9.9,26.2,22.2,26.2h136L333.9,765l1.3-0.4c0,0.1,0,0.3,0,0.4c0,14.4,9.9,26.2,22.2,26.2h554.5c12.2,0,22.2-11.7,22.2-26.2
			c0-14.5-9.9-26.2-22.2-26.2H376.7L351,634.1h516.6c12.2,0,22.2-11.7,22.2-26.2c0-0.1,0-0.3,0-0.4l1.3,0.4l109.6-430.9l-3.1-0.9
			C999.5,172.2,1000.6,167.7,1000.6,162.9z M302,869.8c-30.6,0-55.5,29.3-55.5,65.5c0,36.2,24.8,65.5,55.5,65.5
			c30.6,0,55.5-29.3,55.5-65.5C357.4,899.1,332.6,869.8,302,869.8z M923,869.8c-30.6,0-55.4,29.3-55.4,65.5
			c0,36.2,24.8,65.5,55.4,65.5c30.6,0,55.5-29.3,55.5-65.5C978.5,899.1,953.6,869.8,923,869.8z"/>
	</g>
</g>
</svg>
